<svg xmlns="http://www.w3.org/2000/svg" viewBox="0 0 512 512">
  <rect width="512" height="512" rx="96" fill="#0b0e13"/>
  <path d="M116 364 92 212l62-72 102-36 102 36 62 72-24 152-92 62h-96l-92-62Z" fill="#1a222d"/>
  <path d="M154 170h204l38 52-21 120-74 50h-90l-74-50-21-120 38-52Z" fill="#303b49"/>
  <path d="M178 204h156l30 40-16 82-58 38h-68l-58-38-16-82 30-40Z" fill="#10161f"/>
  <path d="M190 236h132l-20 43h-92l-20-43Z" fill="#ffb13b"/>
  <path d="M210 302h92l-28 34h-36l-28-34Z" fill="#37d5ff"/>
  <path d="M128 374h256l-32 56H160l-32-56Z" fill="#b96b24"/>
  <path d="M92 212 34 246v94l82 24 20-58-45-16 45-28-44-50Zm328 0 58 34v94l-82 24-20-58 45-16-45-28 44-50Z" fill="#202a36"/>
  <path d="M174 128 256 78l82 50-34 42h-96l-34-42Z" fill="#465363"/>
  <path d="M200 104h112l-56-34-56 34Z" fill="#ffb13b"/>
</svg>
